{
  "accessors": [
    {
      "bufferView": 2,
      "componentType": 5126,
      "count": 574,
      "max": [
        7.3833465576171875,
        51.620567321777344,
        94.82344055175781
      ],
      "min": [
        -7.3833465576171875,
        -43.00636672973633,
        21.045072555541992
      ],
      "type": "VEC3"
    },
    {
      "bufferView": 2,
      "byteOffset": 6888,
      "componentType": 5126,
      "count": 574,
      "max": [
        1.0,
        0.9893507361412048,
        0.9788662791252136
      ],
      "min": [
        -1.0,
        -0.9993058443069458,
        -0.9544146656990051
      ],
      "type": "VEC3"
    },
    {
      "bufferView": 1,
      "componentType": 5126,
      "count": 574,
      "max": [
        0.8062500357627869,
        0.40937501192092896
      ],
      "min": [
        0.17812499403953552,
        0.26249998807907104
      ],
      "type": "VEC2"
    },
    {
      "bufferView": 0,
      "componentType": 5125,
      "count": 858,
      "type": "SCALAR"
    },
    {
      "bufferView": 2,
      "byteOffset": 13776,
      "componentType": 5126,
      "count": 80,
      "max": [
        15.358697891235352,
        1.383859634399414,
        20.614484786987305
      ],
      "min": [
        -1.5800213813781738,
        -2.348332643508911,
        -20.614484786987305
      ],
      "type": "VEC3"
    },
    {
      "bufferView": 2,
      "byteOffset": 14736,
      "componentType": 5126,
      "count": 80,
      "max": [
        1.0,
        0.9999564290046692,
        0.9999915957450867
      ],
      "min": [
        -1.0,
        -0.9994014501571655,
        -0.9999915957450867
      ],
      "type": "VEC3"
    },
    {
      "bufferView": 1,
      "byteOffset": 4592,
      "componentType": 5126,
      "count": 80,
      "max": [
        0.40312498807907104,
        0.4937499761581421
      ],
      "min": [
        0.13750000298023224,
        0.32499998807907104
      ],
      "type": "VEC2"
    },
    {
      "bufferView": 0,
      "byteOffset": 3432,
      "componentType": 5125,
      "count": 120,
      "type": "SCALAR"
    },
    {
      "bufferView": 2,
      "byteOffset": 15696,
      "componentType": 5126,
      "count": 24,
      "max": [
        -0.6186933517456055,
        3.7800002098083496,
        0.7472891807556152
      ],
      "min": [
        -10.393692970275879,
        -3.7800002098083496,
        -0.9127107858657837
      ],
      "type": "VEC3"
    },
    {
      "bufferView": 2,
      "byteOffset": 15984,
      "componentType": 5126,
      "count": 24,
      "max": [
        1.0,
        1.0,
        1.0
      ],
      "min": [
        -1.0,
        -1.0,
        -1.0
      ],
      "type": "VEC3"
    },
    {
      "bufferView": 1,
      "byteOffset": 5232,
      "componentType": 5126,
      "count": 24,
      "max": [
        0.890625,
        0.3999999761581421
      ],
      "min": [
        0.890625,
        0.3999999761581421
      ],
      "type": "VEC2"
    },
    {
      "bufferView": 0,
      "byteOffset": 3912,
      "componentType": 5125,
      "count": 36,
      "type": "SCALAR"
    },
    {
      "bufferView": 2,
      "byteOffset": 16272,
      "componentType": 5126,
      "count": 24,
      "max": [
        -0.6186933517456055,
        3.7800002098083496,
        0.7472891807556152
      ],
      "min": [
        -10.393692970275879,
        -3.7800002098083496,
        -0.9127107858657837
      ],
      "type": "VEC3"
    },
    {
      "bufferView": 2,
      "byteOffset": 16560,
      "componentType": 5126,
      "count": 24,
      "max": [
        1.0,
        1.0,
        1.0
      ],
      "min": [
        -1.0,
        -1.0,
        -1.0
      ],
      "type": "VEC3"
    },
    {
      "bufferView": 1,
      "byteOffset": 5424,
      "componentType": 5126,
      "count": 24,
      "max": [
        0.890625,
        0.3999999761581421
      ],
      "min": [
        0.890625,
        0.3999999761581421
      ],
      "type": "VEC2"
    },
    {
      "bufferView": 0,
      "byteOffset": 4056,
      "componentType": 5125,
      "count": 36,
      "type": "SCALAR"
    },
    {
      "bufferView": 2,
      "byteOffset": 16848,
      "componentType": 5126,
      "count": 320,
      "max": [
        29.190988540649414,
        29.190988540649414,
        2.0471270084381104
      ],
      "min": [
        -29.190988540649414,
        -29.190988540649414,
        -2.035550594329834
      ],
      "type": "VEC3"
    },
    {
      "bufferView": 2,
      "byteOffset": 20688,
      "componentType": 5126,
      "count": 320,
      "max": [
        0.9807494878768921,
        0.9807494282722473,
        0.9464405179023743
      ],
      "min": [
        -0.9807494282722473,
        -0.9807494282722473,
        -0.9520155191421509
      ],
      "type": "VEC3"
    },
    {
      "bufferView": 1,
      "byteOffset": 5616,
      "componentType": 5126,
      "count": 320,
      "max": [
        0.8843749761581421,
        0.40937501192092896
      ],
      "min": [
        0.34375,
        0.3531249761581421
      ],
      "type": "VEC2"
    },
    {
      "bufferView": 0,
      "byteOffset": 4200,
      "componentType": 5125,
      "count": 480,
      "type": "SCALAR"
    },
    {
      "bufferView": 2,
      "byteOffset": 24528,
      "componentType": 5126,
      "count": 304,
      "max": [
        29.15213394165039,
        -14.13411808013916,
        109.26122283935547
      ],
      "min": [
        -29.152137756347656,
        -32.80025100708008,
        84.44579315185547
      ],
      "type": "VEC3"
    },
    {
      "bufferView": 2,
      "byteOffset": 28176,
      "componentType": 5126,
      "count": 304,
      "max": [
        1.0,
        0.9403583407402039,
        0.9656842947006226
      ],
      "min": [
        -1.0,
        -0.9724553227424622,
        -0.9372409582138062
      ],
      "type": "VEC3"
    },
    {
      "bufferView": 1,
      "byteOffset": 8176,
      "componentType": 5126,
      "count": 304,
      "max": [
        0.8999999761581421,
        0.484375
      ],
      "min": [
        0.16562500596046448,
        0.28437501192092896
      ],
      "type": "VEC2"
    },
    {
      "bufferView": 0,
      "byteOffset": 6120,
      "componentType": 5125,
      "count": 456,
      "type": "SCALAR"
    },
    {
      "bufferView": 2,
      "byteOffset": 31824,
      "componentType": 5126,
      "count": 166,
      "max": [
        6.018333435058594,
        -39.4462776184082,
        61.831260681152344
      ],
      "min": [
        -6.018333435058594,
        -56.63483428955078,
        28.6639461517334
      ],
      "type": "VEC3"
    },
    {
      "bufferView": 2,
      "byteOffset": 33816,
      "componentType": 5126,
      "count": 166,
      "max": [
        0.9896272420883179,
        0.992377519607544,
        0.9143052697181702
      ],
      "min": [
        -0.9896272420883179,
        -0.9140063524246216,
        -0.9418705701828003
      ],
      "type": "VEC3"
    },
    {
      "bufferView": 1,
      "byteOffset": 10608,
      "componentType": 5126,
      "count": 166,
      "max": [
        0.421875,
        0.4375
      ],
      "min": [
        0.171875,
        0.40312498807907104
      ],
      "type": "VEC2"
    },
    {
      "bufferView": 0,
      "byteOffset": 7944,
      "componentType": 5125,
      "count": 252,
      "type": "SCALAR"
    },
    {
      "bufferView": 2,
      "byteOffset": 35808,
      "componentType": 5126,
      "count": 320,
      "max": [
        29.190988540649414,
        29.190988540649414,
        2.0471270084381104
      ],
      "min": [
        -29.190988540649414,
        -29.190988540649414,
        -2.035550594329834
      ],
      "type": "VEC3"
    },
    {
      "bufferView": 2,
      "byteOffset": 39648,
      "componentType": 5126,
      "count": 320,
      "max": [
        0.9807494878768921,
        0.9807494282722473,
        0.9464405179023743
      ],
      "min": [
        -0.9807494282722473,
        -0.9807494282722473,
        -0.9520155191421509
      ],
      "type": "VEC3"
    },
    {
      "bufferView": 1,
      "byteOffset": 11936,
      "componentType": 5126,
      "count": 320,
      "max": [
        0.9125000238418579,
        0.3656250238418579
      ],
      "min": [
        0.38749998807907104,
        0.3218749761581421
      ],
      "type": "VEC2"
    },
    {
      "bufferView": 0,
      "byteOffset": 8952,
      "componentType": 5125,
      "count": 480,
      "type": "SCALAR"
    }
  ],
  "asset": {
    "extras": {
      "author": "Denys Almaral (https://sketchfab.com/denysalmaral)",
      "license": "SKETCHFAB Standard (https://sketchfab.com/licenses)",
      "source": "https://sketchfab.com/3d-models/bicycle-low-poly-minimalistic-5c70d53e069a4112a58683ede7bc2be6",
      "title": "Bicycle Low-Poly Minimalistic"
    },
    "generator": "Sketchfab-15.49.0",
    "version": "2.0"
  },
  "bufferViews": [
    {
      "buffer": 0,
      "byteLength": 10872,
      "name": "floatBufferViews",
      "target": 34963
    },
    {
      "buffer": 0,
      "byteLength": 14496,
      "byteOffset": 10872,
      "byteStride": 8,
      "name": "floatBufferViews",
      "target": 34962
    },
    {
      "buffer": 0,
      "byteLength": 43488,
      "byteOffset": 25368,
      "byteStride": 12,
      "name": "floatBufferViews",
      "target": 34962
    }
  ],
  "buffers": [
    {
      "byteLength": 68856,
      "uri": "scene.bin"
    }
  ],
  "images": [
    {
      "uri": "textures/dummyProp_baseColor.png"
    }
  ],
  "materials": [
    {
      "doubleSided": true,
      "name": "dummyProp",
      "pbrMetallicRoughness": {
        "baseColorTexture": {
          "index": 0
        },
        "metallicFactor": 0.0,
        "roughnessFactor": 0.9084269016713077
      }
    }
  ],
  "meshes": [
    {
      "name": "bike_body_dummyProp_0",
      "primitives": [
        {
          "attributes": {
            "NORMAL": 1,
            "POSITION": 0,
            "TEXCOORD_0": 2
          },
          "indices": 3,
          "material": 0,
          "mode": 4
        }
      ]
    },
    {
      "name": "bike_pedal_dummyProp_0",
      "primitives": [
        {
          "attributes": {
            "NORMAL": 5,
            "POSITION": 4,
            "TEXCOORD_0": 6
          },
          "indices": 7,
          "material": 0,
          "mode": 4
        }
      ]
    },
    {
      "name": "bike_pedalFootR_dummyProp_0",
      "primitives": [
        {
          "attributes": {
            "NORMAL": 9,
            "POSITION": 8,
            "TEXCOORD_0": 10
          },
          "indices": 11,
          "material": 0,
          "mode": 4
        }
      ]
    },
    {
      "name": "bike_pedalFootL_dummyProp_0",
      "primitives": [
        {
          "attributes": {
            "NORMAL": 13,
            "POSITION": 12,
            "TEXCOORD_0": 14
          },
          "indices": 15,
          "material": 0,
          "mode": 4
        }
      ]
    },
    {
      "name": "bike_tyre2_dummyProp_0",
      "primitives": [
        {
          "attributes": {
            "NORMAL": 17,
            "POSITION": 16,
            "TEXCOORD_0": 18
          },
          "indices": 19,
          "material": 0,
          "mode": 4
        }
      ]
    },
    {
      "name": "bike_handleBar_dummyProp_0",
      "primitives": [
        {
          "attributes": {
            "NORMAL": 21,
            "POSITION": 20,
            "TEXCOORD_0": 22
          },
          "indices": 23,
          "material": 0,
          "mode": 4
        }
      ]
    },
    {
      "name": "bike_fork_dummyProp_0",
      "primitives": [
        {
          "attributes": {
            "NORMAL": 25,
            "POSITION": 24,
            "TEXCOORD_0": 26
          },
          "indices": 27,
          "material": 0,
          "mode": 4
        }
      ]
    },
    {
      "name": "bike_tyre1_dummyProp_0",
      "primitives": [
        {
          "attributes": {
            "NORMAL": 29,
            "POSITION": 28,
            "TEXCOORD_0": 30
          },
          "indices": 31,
          "material": 0,
          "mode": 4
        }
      ]
    }
  ],
  "nodes": [
    {
      "children": [
        1
      ],
      "matrix": [
        1.0,
        0.0,
        0.0,
        0.0,
        0.0,
        2.220446049250313e-16,
        -1.0,
        0.0,
        0.0,
        1.0,
        2.220446049250313e-16,
        0.0,
        0.0,
        0.0,
        0.0,
        1.0
      ],
      "name": "Sketchfab_model"
    },
    {
      "children": [
        2
      ],
      "matrix": [
        0.009999999776482582,
        0.0,
        0.0,
        0.0,
        0.0,
        0.0,
        0.009999999776482582,
        0.0,
        0.0,
        -0.009999999776482582,
        0.0,
        0.0,
        0.0,
        0.0,
        0.0,
        1.0
      ],
      "name": "27b5bce1d67f44d489d90ee6e78de518.fbx"
    },
    {
      "children": [
        3
      ],
      "name": "RootNode"
    },
    {
      "children": [
        4,
        5,
        12,
        14
      ],
      "matrix": [
        1.0,
        0.0,
        0.0,
        0.0,
        0.0,
        2.220446049250313e-16,
        -1.0,
        0.0,
        0.0,
        1.0,
        2.220446049250313e-16,
        0.0,
        0.0,
        0.0,
        0.0,
        1.0
      ],
      "name": "bike_body"
    },
    {
      "mesh": 0,
      "name": "bike_body_dummyProp_0"
    },
    {
      "children": [
        6,
        8,
        10
      ],
      "matrix": [
        1.0,
        0.0,
        0.0,
        0.0,
        0.0,
        1.0,
        0.0,
        0.0,
        0.0,
        0.0,
        1.0,
        0.0,
        0.10981512069702148,
        8.878949165344238,
        25.774585723876953,
        1.0
      ],
      "name": "bike_pedal"
    },
    {
      "children": [
        7
      ],
      "matrix": [
        1.0,
        0.0,
        -0.0,
        0.0,
        0.0,
        1.0,
        0.0,
        0.0,
        0.0,
        0.0,
        1.0,
        0.0,
        -7.001004695892334,
        0.6735544800758362,
        2.9442000837320847e-08,
        1.0
      ],
      "name": "Object_6"
    },
    {
      "mesh": 1,
      "name": "bike_pedal_dummyProp_0"
    },
    {
      "children": [
        9
      ],
      "matrix": [
        1.0,
        0.0,
        0.0,
        0.0,
        0.0,
        1.0,
        0.0,
        0.0,
        0.0,
        0.0,
        1.0,
        0.0,
        -8.020280838012695,
        0.26211071014404297,
        -20.19922637939453,
        1.0
      ],
      "name": "bike_pedalFootR"
    },
    {
      "mesh": 2,
      "name": "bike_pedalFootR_dummyProp_0"
    },
    {
      "children": [
        11
      ],
      "matrix": [
        -0.9999999999999851,
        1.509958026505502e-07,
        -8.742277657347455e-08,
        0.0,
        1.5099579500780833e-07,
        0.9999999999999848,
        8.742277669594009e-08,
        0.0,
        8.742278977394556e-08,
        8.742276349546712e-08,
        -0.9999999999999927,
        0.0,
        7.796947002410889,
        0.1721973419189453,
        20.19922637939453,
        1.0
      ],
      "name": "bike_pedalFootL"
    },
    {
      "mesh": 3,
      "name": "bike_pedalFootL_dummyProp_0"
    },
    {
      "children": [
        13
      ],
      "matrix": [
        -1.6292068516499114e-07,
        -0.9999999999999869,
        0.0,
        0.0,
        -1.629206849984577e-07,
        2.6423307986078726e-14,
        0.9999999999999869,
        0.0,
        -0.9999999999999736,
        1.629206849984577e-07,
        -1.6292068516499114e-07,
        0.0,
        2.1649300379067427e-06,
        49.52782440185547,
        29.84529685974121,
        1.0
      ],
      "name": "bike_tyre2"
    },
    {
      "mesh": 4,
      "name": "bike_tyre2_dummyProp_0"
    },
    {
      "children": [
        15,
        17
      ],
      "matrix": [
        1.0,
        0.0,
        0.0,
        0.0,
        0.0,
        0.9276517683306265,
        -0.3734463772927269,
        0.0,
        0.0,
        0.3734463772927269,
        0.9276517683306265,
        0.0,
        1.3787315822355595e-07,
        -31.561420440673828,
        85.70619201660156,
        1.0
      ],
      "name": "bike_handleBar"
    },
    {
      "children": [
        16
      ],
      "matrix": [
        0.9999999999999999,
        -3.1624402600766007e-09,
        1.6323856541448962e-08,
        0.0,
        -3.1624412074545435e-09,
        0.9276517816428511,
        0.3734463442247682,
        0.0,
        -1.632385635791227e-08,
        -0.3734463442247682,
        0.927651781642851,
        0.0,
        1.161371415037138e-06,
        61.284671783447266,
        -67.7190170288086,
        1.0
      ],
      "name": "Object_15"
    },
    {
      "mesh": 5,
      "name": "bike_handleBar_dummyProp_0"
    },
    {
      "children": [
        18,
        19
      ],
      "matrix": [
        1.0,
        0.0,
        0.0,
        0.0,
        0.0,
        0.9276518179406714,
        0.37344625405989484,
        0.0,
        0.0,
        -0.37344625405989484,
        0.9276518179406714,
        0.0,
        -1.3787315822355595e-07,
        61.28466796875,
        -67.71900939941406,
        1.0
      ],
      "name": "bike_fork"
    },
    {
      "mesh": 6,
      "name": "bike_fork_dummyProp_0"
    },
    {
      "children": [
        20
      ],
      "matrix": [
        -1.5994711888289714e-07,
        -0.9817483925297333,
        0.1901843678256937,
        0.0,
        -1.3193571768432832e-07,
        0.19018436782571535,
        0.9817483925297333,
        0.0,
        -0.9999999999999784,
        1.3193571579694918e-07,
        -1.5994712043720938e-07,
        0.0,
        -2.4160956400010036e-06,
        -55.27383041381836,
        29.845293045043945,
        1.0
      ],
      "name": "bike_tyre1"
    },
    {
      "mesh": 7,
      "name": "bike_tyre1_dummyProp_0"
    }
  ],
  "samplers": [
    {
      "magFilter": 9729,
      "minFilter": 9987,
      "wrapS": 10497,
      "wrapT": 10497
    }
  ],
  "scene": 0,
  "scenes": [
    {
      "name": "Sketchfab_Scene",
      "nodes": [
        0
      ]
    }
  ],
  "textures": [
    {
      "sampler": 0,
      "source": 0
    }
  ]
}
